<svg xmlns="http://www.w3.org/2000/svg" viewBox="0 0 32 32" width="32" height="32">
  <rect width="32" height="32" rx="8" fill="#5A6B3B"/>
  <!-- whisk bowl -->
  <path d="M9 20.5h14a0.8 0.8 0 0 1 0.78 0.98l-0.55 2.4A3 3 0 0 1 20.3 26.2h-8.6a3 3 0 0 1-2.93-2.32l-0.55-2.4A0.8 0.8 0 0 1 9 20.5Z" fill="#E8EBD9"/>
  <!-- matcha surface -->
  <ellipse cx="16" cy="20.5" rx="7" ry="1.6" fill="#8FA866"/>
  <!-- leaf -->
  <path d="M16 5.5c3.6 1.2 5.6 4 5.2 8.2-3.7-0.5-5.7-3.2-5.2-8.2Z" fill="#8FA866"/>
  <path d="M16 5.5c-3.6 1.2-5.6 4-5.2 8.2 3.7-0.5 5.7-3.2 5.2-8.2Z" fill="#E8EBD9"/>
  <path d="M16 6v9.5" stroke="#5A6B3B" stroke-width="1.1" stroke-linecap="round"/>
</svg>
