<svg width="64" height="64" viewBox="0 0 64 64" fill="none" xmlns="http://www.w3.org/2000/svg">
  <rect width="64" height="64" rx="16" fill="#023F51"/>
  <path d="M32 12C32 12 18 27.5 18 38C18 46.2843 24.2680 53 32 53C39.7320 53 46 46.2843 46 38C46 27.5 32 12 32 12Z" fill="#00B8DE"/>
  <path d="M32 12C32 12 18 27.5 18 38C18 46.2843 24.2680 53 32 53C39.7320 53 46 46.2843 46 38C46 27.5 32 12 32 12Z" fill="url(#g)" fill-opacity="0.55"/>
  <ellipse cx="27" cy="34" rx="4.2" ry="5.6" fill="#95D6E9" fill-opacity="0.85"/>
  <defs>
    <linearGradient id="g" x1="32" y1="12" x2="32" y2="53" gradientUnits="userSpaceOnUse">
      <stop stop-color="#95D6E9"/>
      <stop offset="1" stop-color="#00B8DE" stop-opacity="0"/>
    </linearGradient>
  </defs>
</svg>
