<svg xmlns="http://www.w3.org/2000/svg" viewBox="0 0 32 32">
  <rect width="32" height="32" rx="7" fill="#ba23b8"/>
  <g fill="#ffffff">
    <rect x="7" y="7" width="8" height="8" rx="1.5"/>
    <rect x="9.5" y="9.5" width="3" height="3" fill="#ba23b8"/>
    <rect x="17" y="7" width="3.5" height="3.5" rx="1"/>
    <rect x="21.5" y="7" width="3.5" height="3.5" rx="1"/>
    <rect x="17" y="11.5" width="3.5" height="3.5" rx="1"/>
    <rect x="21.5" y="11.5" width="3.5" height="3.5" rx="1"/>
    <rect x="7" y="17" width="3.5" height="3.5" rx="1"/>
    <rect x="11.5" y="17" width="3.5" height="3.5" rx="1"/>
    <rect x="7" y="21.5" width="3.5" height="3.5" rx="1"/>
    <rect x="11.5" y="21.5" width="3.5" height="3.5" rx="1"/>
    <rect x="17" y="17" width="8" height="8" rx="1.5"/>
    <rect x="19.5" y="19.5" width="3" height="3" fill="#ba23b8"/>
  </g>
</svg>
